<?xml version="1.0" encoding="UTF-8"?>
<svg xmlns="http://www.w3.org/2000/svg" xmlns:xlink="http://www.w3.org/1999/xlink" width="188pt" height="147pt" viewBox="0 0 188 147" version="1.1">
<defs>
<clipPath id="clip1">
  <path d="M 137.398438 89.496094 L 187.441406 89.496094 L 187.441406 139 L 137.398438 139 Z M 137.398438 89.496094 "/>
</clipPath>
<clipPath id="clip2">
  <path d="M 28 0 L 160 0 L 160 146.605469 L 28 146.605469 Z M 28 0 "/>
</clipPath>
<clipPath id="clip3">
  <path d="M 28 0 L 94.757812 0 L 94.757812 146.605469 L 28 146.605469 Z M 28 0 "/>
</clipPath>
</defs>
<g id="surface1">
<path style=" stroke:none;fill-rule:nonzero;fill:rgb(93.333333%,46.666667%,8.235294%);fill-opacity:1;" d="M 6.167969 89.792969 L 49.9375 89.792969 L 49.9375 138.660156 L 6.167969 138.660156 C 0.226562 138.660156 -1.554688 134.882812 2.179688 130.214844 L 7.101562 124.058594 C 10.839844 119.390625 11.050781 111.664062 7.570312 106.8125 L 1.710938 98.59375 C -1.769531 93.734375 0.226562 89.792969 6.167969 89.792969 "/>
<path style=" stroke:none;fill-rule:nonzero;fill:rgb(80.784314%,25.098039%,9.019608%);fill-opacity:1;" d="M 32.089844 111.898438 L 49.9375 138.660156 L 49.9375 106.984375 Z M 32.089844 111.898438 "/>
<g clip-path="url(#clip1)" clip-rule="nonzero">
<path style=" stroke:none;fill-rule:nonzero;fill:rgb(93.333333%,46.666667%,8.235294%);fill-opacity:1;" d="M 181.273438 89.789062 L 137.507812 89.789062 L 137.507812 138.65625 L 181.273438 138.65625 C 187.210938 138.65625 188.996094 134.882812 185.261719 130.214844 L 180.332031 124.054688 C 176.601562 119.386719 176.390625 111.664062 179.867188 106.808594 L 185.730469 98.59375 C 189.207031 93.734375 187.210938 89.789062 181.273438 89.789062 "/>
</g>
<path style=" stroke:none;fill-rule:nonzero;fill:rgb(80.784314%,25.098039%,9.019608%);fill-opacity:1;" d="M 155.355469 111.898438 L 137.507812 138.65625 L 137.507812 106.984375 Z M 155.355469 111.898438 "/>
<g clip-path="url(#clip2)" clip-rule="nonzero">
<path style=" stroke:none;fill-rule:nonzero;fill:rgb(95.686275%,60%,9.803922%);fill-opacity:1;" d="M 37.328125 29.742188 L 84.566406 2.210938 C 89.625 -0.738281 97.835938 -0.738281 102.898438 2.210938 L 150.128906 29.742188 C 155.1875 32.695312 159.292969 39.871094 159.292969 45.769531 L 159.292969 100.832031 C 159.292969 106.734375 155.1875 113.910156 150.128906 116.859375 L 102.898438 144.390625 C 97.835938 147.339844 89.625 147.339844 84.566406 144.390625 L 37.328125 116.859375 C 32.265625 113.910156 28.167969 106.734375 28.167969 100.832031 L 28.167969 45.769531 C 28.167969 39.871094 32.265625 32.695312 37.328125 29.742188 "/>
</g>
<g clip-path="url(#clip3)" clip-rule="nonzero">
<path style=" stroke:none;fill-rule:nonzero;fill:rgb(96.862745%,64.705882%,8.627451%);fill-opacity:1;" d="M 94.019531 0.0078125 C 90.605469 -0.0390625 87.171875 0.695312 84.566406 2.210938 L 37.328125 29.742188 C 32.265625 32.695312 28.167969 39.871094 28.167969 45.769531 L 28.167969 100.832031 C 28.167969 106.734375 32.265625 113.910156 37.328125 116.859375 L 84.566406 144.390625 C 87.171875 145.910156 90.605469 146.636719 94.019531 146.597656 Z M 94.019531 0.0078125 "/>
</g>
<path style=" stroke:none;fill-rule:nonzero;fill:rgb(13.72549%,12.156863%,7.058824%);fill-opacity:1;" d="M 73.339844 69.710938 C 73.246094 69.613281 73.121094 69.566406 72.996094 69.566406 C 72.875 69.566406 72.75 69.613281 72.65625 69.710938 L 69.050781 73.351562 L 66.664062 70.941406 C 66.570312 70.84375 66.445312 70.800781 66.324219 70.800781 C 66.199219 70.800781 66.074219 70.84375 65.980469 70.941406 L 64.210938 72.726562 C 64.121094 72.820312 64.070312 72.941406 64.070312 73.070312 C 64.070312 73.203125 64.121094 73.324219 64.210938 73.417969 L 68.707031 77.957031 C 68.804688 78.050781 68.925781 78.101562 69.050781 78.101562 C 69.171875 78.101562 69.296875 78.050781 69.390625 77.957031 L 75.109375 72.183594 C 75.199219 72.09375 75.25 71.972656 75.25 71.839844 C 75.25 71.710938 75.199219 71.585938 75.109375 71.496094 Z M 73.339844 69.710938 "/>
<path style=" stroke:none;fill-rule:nonzero;fill:rgb(13.72549%,12.156863%,7.058824%);fill-opacity:1;" d="M 93.71875 32.335938 C 71.308594 32.335938 53.140625 50.675781 53.140625 73.300781 C 53.140625 81.5625 55.566406 89.25 59.730469 95.683594 L 55.632812 111.121094 L 70.710938 107.046875 C 77.246094 111.597656 85.171875 114.265625 93.71875 114.265625 C 116.128906 114.265625 134.296875 95.925781 134.296875 73.300781 C 134.296875 50.675781 116.128906 32.335938 93.71875 32.335938 M 79.898438 81.621094 C 79.898438 84.023438 78.558594 85.9375 75.890625 85.9375 C 73.699219 85.9375 72.339844 84.535156 71.753906 82.945312 C 71.109375 83.054688 70.390625 83.105469 69.667969 83.105469 C 64.277344 83.105469 60.539062 79.925781 60.539062 73.5625 C 60.539062 68.066406 64.140625 64.183594 69.511719 64.183594 C 75.808594 64.183594 78.640625 68.011719 78.640625 73.753906 C 78.640625 76.582031 77.894531 78.875 76.425781 80.492188 C 76.640625 81.328125 76.933594 82.242188 77.597656 82.242188 C 78.078125 82.242188 78.132812 81.488281 78.132812 81.03125 L 78.132812 80.25 L 79.898438 80.25 Z M 97.90625 67.742188 L 96.464844 67.742188 L 96.464844 74.292969 C 96.464844 80.679688 93.820312 83.5625 88.796875 83.5625 C 83.40625 83.402344 80.523438 80.546875 80.523438 74.425781 L 80.523438 67.769531 L 79.027344 67.769531 L 79.027344 64.265625 L 87.519531 64.265625 L 87.519531 67.742188 L 86.078125 67.742188 L 86.078125 73.5625 C 86.078125 77.90625 87.035156 78.820312 88.746094 78.820312 C 90.375 78.820312 91.441406 78.175781 91.441406 73.535156 L 91.441406 67.824219 L 90 67.824219 L 90 64.265625 L 97.90625 64.265625 Z M 107.835938 67.820312 L 106.179688 67.820312 L 106.179688 79.519531 L 107.835938 79.519531 L 107.835938 83.105469 L 98.96875 83.105469 L 98.96875 79.519531 L 100.65625 79.519531 L 100.65625 67.820312 L 98.96875 67.820312 L 98.96875 64.265625 L 107.835938 64.265625 Z M 126.820312 83.105469 L 109.171875 83.105469 L 109.171875 79.601562 L 118.890625 67.847656 L 113.871094 67.847656 L 113.871094 71.351562 L 109.332031 71.351562 L 109.332031 64.265625 L 126.851562 64.265625 L 126.902344 67.847656 L 117.128906 79.546875 L 122.097656 79.546875 L 122.097656 76.097656 L 126.824219 76.097656 L 126.824219 83.105469 Z M 126.820312 83.105469 "/>
</g>
</svg>
